<?xml version="1.0" encoding="UTF-8"?>
<svg version="1.1" xmlns="http://www.w3.org/2000/svg" width="512" height="512">
<path d="M0 0 C0.6506543 0.17515137 1.30130859 0.35030273 1.97167969 0.53076172 C21.67450033 6.01730193 38.24263709 17.06249058 53 31 C53.81210937 31.73605469 54.62421875 32.47210938 55.4609375 33.23046875 C67.58638805 44.64828259 75.76634199 59.64878856 84.59375 73.62109375 C87.53077542 78.26837924 90.50381537 82.8906989 93.5 87.5 C98.31377598 94.91260793 103.06067098 102.36677971 107.79541016 109.83007812 C110.99482052 114.86815926 114.22093367 119.88633028 117.48974609 124.87963867 C132.87462225 148.42874855 143.17175442 171.09927729 137.54663086 199.94165039 C133.12690002 219.74271749 121.13315136 237.69275613 104.125 248.75 C84.59387894 260.9196899 62.88898119 265.26944567 40.27734375 260.25 C33.6421464 258.4431872 27.25724434 255.82076273 20.85009766 253.34570312 C-16.56718247 238.93487397 -56.24607748 240.23038446 -93.375 254.625 C-116.48952119 263.58363526 -138.58572851 265.07176284 -161.94921875 255.4296875 C-180.70876602 246.63840158 -195.03360958 230.98588987 -203 212 C-210.07685804 191.34844153 -210.21211954 170.42274993 -201.57421875 150.20703125 C-197.29017077 141.4794794 -192.3761742 133.28013161 -187 125.1875 C-185.67081971 123.16866314 -184.34272153 121.14911349 -183.015625 119.12890625 C-182.34724609 118.11199707 -181.67886719 117.09508789 -180.99023438 116.04736328 C-177.86794713 111.26664819 -174.80664016 106.44785912 -171.75 101.625 C-167.26504777 94.55348472 -162.75409122 87.5009416 -158.18701172 80.48217773 C-155.60138194 76.50068602 -153.04954735 72.5000324 -150.5234375 68.48046875 C-134.28788798 42.66843071 -134.28788798 42.66843071 -123 32 C-121.81083984 30.79923828 -121.81083984 30.79923828 -120.59765625 29.57421875 C-89.04658486 -1.69218131 -42.30055829 -11.48940268 0 0 Z " fill="#8CA52D" transform="translate(272,219)"/>
<path d="M0 0 C0 81.51 0 163.02 0 247 C-15.345 248.98 -15.345 248.98 -31 251 C-41.03237911 253.34523148 -50.14542606 256.39388073 -59.6875 260.125 C-82.17493551 268.91506248 -104.31789859 269.76959741 -126.94921875 260.4296875 C-145.70876602 251.63840158 -160.03360958 235.98588987 -168 217 C-175.07685804 196.34844153 -175.21211954 175.42274993 -166.57421875 155.20703125 C-162.29017077 146.4794794 -157.3761742 138.28013161 -152 130.1875 C-150.67081971 128.16866314 -149.34272153 126.14911349 -148.015625 124.12890625 C-147.34724609 123.11199707 -146.67886719 122.09508789 -145.99023438 121.04736328 C-142.86794713 116.26664819 -139.80664016 111.44785912 -136.75 106.625 C-132.26504777 99.55348472 -127.75409122 92.5009416 -123.18701172 85.48217773 C-120.60138194 81.50068602 -118.04954735 77.5000324 -115.5234375 73.48046875 C-99.28788798 47.66843071 -99.28788798 47.66843071 -88 37 C-86.81083984 35.79923828 -86.81083984 35.79923828 -85.59765625 34.57421875 C-63.13239272 12.31164932 -31.59121189 0 0 0 Z " fill="#B4D241" transform="translate(237,214)"/>
<path d="M0 0 C0.96873047 -0.01611328 1.93746094 -0.03222656 2.93554688 -0.04882812 C13.26165589 -0.05571679 22.52460309 2.63493724 31.6875 7.3125 C32.46609375 7.70953125 33.2446875 8.1065625 34.046875 8.515625 C52.18957343 18.56922222 65.9604611 36.7225857 72.0390625 56.45703125 C73.05470108 60.04833275 73.92307006 63.65878401 74.6875 67.3125 C74.87828125 68.20195313 75.0690625 69.09140625 75.265625 70.0078125 C78.31550193 93.89851515 74.64749038 119.32716947 60.3359375 139.2421875 C56.97783456 143.45971015 53.43456827 147.43706561 49.6875 151.3125 C48.94886719 152.08851563 48.21023437 152.86453125 47.44921875 153.6640625 C36.61507929 164.26148967 20.86251 171.41182495 5.6875 172.3125 C4.36492187 172.39177734 4.36492187 172.39177734 3.015625 172.47265625 C-16.05254536 173.05277254 -34.36842754 165.88648384 -48.25390625 152.89306641 C-65.57822796 135.98577449 -75.18897729 113.18774317 -75.55395508 88.95507812 C-75.63914561 62.60929617 -67.71460102 38.89801109 -48.8671875 19.83984375 C-35.22401232 7.03065577 -18.69540663 -0.06145762 0 0 Z " fill="#B3D140" transform="translate(199.3125,32.6875)"/>
<path d="M0 0 C16.74660671 13.43375711 25.75985701 31.65194242 28.34082031 52.77929688 C29.77786104 78.39731138 22.26419475 101.58854087 5.21582031 120.90429688 C-7.66069766 134.83630427 -24.51233306 143.67798233 -43.58105469 145.06445312 C-60.40068755 145.63522767 -76.47299529 140.78133553 -89.51074219 129.90039062 C-105.42918358 114.18454758 -112.9392788 94.38933193 -113.15917969 72.27929688 C-112.93958145 48.21053913 -103.9637919 26.986626 -87.42871094 9.38476562 C-63.97984708 -12.6750259 -27.22538734 -20.03044978 0 0 Z " fill="#8CA52D" transform="translate(396.6591796875,84.220703125)"/>
<path d="M0 0 C3.04439007 2.67714967 5.9122111 5.49968234 8.76171875 8.3828125 C9.42945312 9.04023438 10.0971875 9.69765625 10.78515625 10.375 C25.11148382 25.47922771 31.37121799 47.34060549 31.01171875 67.7421875 C29.95028128 83.19937063 25.31278096 97.17619795 15.76171875 109.3828125 C15.01921875 110.4140625 14.27671875 111.4453125 13.51171875 112.5078125 C2.33041604 124.19735624 -12.03632395 130.26264203 -27.97265625 131.34375 C-47.97632515 131.58302834 -65.26101837 123.11005522 -79.37890625 109.3984375 C-95.4530893 92.97996137 -101.9199812 71.6300621 -101.70874023 49.1809082 C-101.17366245 31.20657516 -94.87066003 14.80421202 -82.0546875 2.0078125 C-59.40950374 -19.09837818 -23.91894188 -20.03491655 0 0 Z " fill="#B4D241" transform="translate(101.23828125,145.6171875)"/>
<path d="M0 0 C11.4416476 9.62891638 18.76142571 23.47652555 21.35546875 38.1171875 C22.96994047 61.21860762 18.97656243 82.87340724 3.46875 100.8203125 C2.77136719 101.57828125 2.07398438 102.33625 1.35546875 103.1171875 C0.60652344 103.95765625 -0.14242187 104.798125 -0.9140625 105.6640625 C-14.68657556 120.34880987 -34.02819514 128.80470499 -54.14453125 129.4921875 C-71.5192038 128.84868111 -86.66940793 122.84343863 -98.64453125 110.1171875 C-110.13460742 97.29786723 -115.08624972 81.72020652 -114.8515625 64.609375 C-113.50318767 41.86509021 -104.19511204 22.47560625 -87.64453125 6.68359375 C-62.85093406 -14.52655384 -27.38414541 -19.49654075 0 0 Z " fill="#8CA52D" transform="translate(490.64453125,215.8828125)"/>
<path d="M0 0 C4.36126852 1.09031713 6.51065586 2.84653083 9.6875 5.8125 C10.21569336 6.30532471 10.74388672 6.79814941 11.28808594 7.3059082 C24.95380171 20.39085173 33.15868485 36.63981575 37 55 C37.28617187 56.33417969 37.28617187 56.33417969 37.578125 57.6953125 C40.62800193 81.58601515 36.95999038 107.01466947 22.6484375 126.9296875 C16.52442214 134.62098641 9.7603808 141.9266585 2 148 C1.34 148 0.68 148 0 148 C0 99.16 0 50.32 0 0 Z " fill="#8DA62D" transform="translate(237,45)"/>
</svg>
